<svg width="134" height="42" viewBox="0 0 134 42" fill="none" xmlns="http://www.w3.org/2000/svg">
<g clip-path="url(#clip0_37_732)">
<path d="M53.7715 26.0957H64.34V28.7049L50.5031 28.7199V18.2236H64.34V20.8476H53.7715V22.3021H64.0652V24.6414H53.7715V26.0957Z" fill="#1A1A1A"/>
<path d="M80.4678 27.8502V28.7199H77.23V26.2158H69.2884V28.7199H66.02V18.2236H75.7944C79.9792 18.2236 80.4678 18.5835 80.4678 22.2122C80.4678 23.7717 80.086 24.2964 79.2002 24.7164C80.086 25.1662 80.4678 25.361 80.4678 27.8502ZM77.2148 20.8476H69.2884V23.5918H77.2148V20.8476Z" fill="#1A1A1A"/>
<path d="M99.4671 18.2236V28.7199H96.1988V22.2571L92.1821 28.7199H89.4483L85.4318 22.2571V28.7199H82.1633V18.2236H86.3633L90.8228 25.3761L95.2671 18.2236H99.4671Z" fill="#1A1A1A"/>
<path d="M104.584 26.0957H115.152V28.7049L101.315 28.7199V18.2236H115.152V20.8476H104.584V22.3021H114.877V24.6414H104.584V26.0957Z" fill="#1A1A1A"/>
<path d="M131.311 25.5109C131.311 28.7197 129.967 29.0046 123.919 29.0046C117.871 29.0046 116.542 28.7346 116.542 25.4658H119.826V26.3804H128.012V24.6412H123.919C117.871 24.6412 116.68 24.6412 116.68 21.4322C116.68 18.2234 117.993 17.9385 123.934 17.9385C129.86 17.9385 131.158 18.2834 131.158 21.4772H127.89V20.5626H119.948V22.3019H123.919C130.043 22.3019 131.311 22.3019 131.311 25.5109Z" fill="#1A1A1A"/>
<path d="M51.3465 12.7715V15.5829H50.4709V12.7715H51.3465Z" fill="#F4BE45"/>
<path d="M55.7068 12.7715V15.5829H54.4713L52.7122 13.651V15.5829H51.8369V12.7715H52.9864L54.8354 14.7998V12.7715H55.7068Z" fill="#F4BE45"/>
<path d="M60.1767 14.1773C60.1767 15.5066 60.103 15.5788 58.1927 15.5788L56.2006 15.5829V12.7715H58.1927C60.099 12.7715 60.1767 12.8477 60.1767 14.1773ZM59.3014 13.4743H57.0761V14.8801H59.3014V13.4743Z" fill="#F4BE45"/>
<path d="M62.5032 15.6592C60.5602 15.6592 60.5929 15.5829 60.5929 14.1773V12.7715H61.4684V14.9604H63.5343V12.7715H64.4096V14.1773C64.4096 15.5829 64.4423 15.6592 62.5032 15.6592Z" fill="#F4BE45"/>
<path d="M68.7609 14.7236C68.7609 15.583 68.401 15.6592 66.7811 15.6592C65.1611 15.6592 64.8053 15.587 64.8053 14.7114H65.6847V14.9564H67.8774V14.4905H66.7811C65.1611 14.4905 64.8422 14.4905 64.8422 13.6312C64.8422 12.7716 65.1939 12.6953 66.7852 12.6953C68.3724 12.6953 68.72 12.7876 68.72 13.6432H67.8446V13.3981H65.7175V13.864H66.7811C68.4215 13.864 68.7609 13.864 68.7609 14.7236Z" fill="#F4BE45"/>
<path d="M72.9855 13.398H71.4147V15.5829H70.5393V13.398H68.9685V12.7715H72.9855V13.398Z" fill="#F4BE45"/>
<path d="M77.1406 15.3498V15.5829H76.2735V14.9122H74.1464V15.5829H73.2709V12.7715H75.8889C77.0097 12.7715 77.1406 12.8679 77.1406 13.8397C77.1406 14.2574 77.0385 14.3981 76.8011 14.5106C77.0385 14.631 77.1406 14.6832 77.1406 15.3498ZM76.2694 13.4743H74.1464V14.2094H76.2694L76.2694 13.4743Z" fill="#F4BE45"/>
<path d="M78.4692 12.7715V15.5829H77.5939V12.7715H78.4692Z" fill="#F4BE45"/>
<path d="M81.8559 15.1211H79.9497L79.6919 15.5829H78.7142L80.2687 12.7715H81.5367L83.0914 15.5829H82.1136L81.8559 15.1211ZM81.5123 14.4945L80.9027 13.394L80.2931 14.4945L81.5123 14.4945Z" fill="#F4BE45"/>
<path d="M86.6451 14.9563V15.5829H83.3357V12.7715H84.2112V14.9563L86.6451 14.9563Z" fill="#F4BE45"/>
<path d="M93.0456 14.1773C93.0456 15.5066 92.9719 15.5788 91.0616 15.5788L89.0695 15.5829V12.7715H91.0616C92.9679 12.7715 93.0456 12.8477 93.0456 14.1773ZM92.1703 13.4743H89.945V14.8801H92.1703V13.4743Z" fill="#F4BE45"/>
<path d="M94.3576 14.8801H97.1886V15.5788L93.4823 15.5829V12.7715H97.1886V13.4743H94.3576V13.8639H97.1148V14.4905H94.3576V14.8801Z" fill="#F4BE45"/>
<path d="M103.654 14.7236C103.654 15.583 103.294 15.6592 101.674 15.6592C100.054 15.6592 99.6986 15.587 99.6986 14.7114H100.578V14.9564H102.771V14.4905H101.674C100.054 14.4905 99.7355 14.4905 99.7355 13.6312C99.7355 12.7716 100.087 12.6953 101.679 12.6953C103.266 12.6953 103.613 12.7876 103.613 13.6432H102.738V13.3981H100.611V13.864H101.674C103.315 13.864 103.654 13.864 103.654 14.7236Z" fill="#F4BE45"/>
<path d="M104.946 14.8801H107.777V15.5788L104.071 15.5829V12.7715H107.777V13.4743H104.946V13.8639H107.703V14.4905H104.946V14.8801Z" fill="#F4BE45"/>
<path d="M112.095 15.3498V15.5829H111.228V14.9122H109.101V15.5829H108.225V12.7715H110.844C111.964 12.7715 112.095 12.8679 112.095 13.8397C112.095 14.2574 111.993 14.3981 111.756 14.5106C111.993 14.631 112.095 14.6832 112.095 15.3498ZM111.224 13.4743H109.101V14.2094H111.224V13.4743Z" fill="#F4BE45"/>
<path d="M116.206 12.7715L114.753 15.5829H113.677L112.225 12.7715H113.203L114.213 14.7314L115.224 12.7715H116.206Z" fill="#F4BE45"/>
<path d="M117.321 12.7715V15.5829H116.446V12.7715H117.321Z" fill="#F4BE45"/>
<path d="M121.731 14.6471C121.69 15.6031 121.424 15.6592 119.755 15.6592C117.84 15.6592 117.763 15.583 117.763 14.1774C117.763 12.7716 117.845 12.6953 119.755 12.6953C121.42 12.6953 121.69 12.7514 121.731 13.7113H120.847V13.3981H118.638V14.9564H120.847V14.6471H121.731Z" fill="#F4BE45"/>
<path d="M123.002 12.7715V15.5829H122.127V12.7715H123.002Z" fill="#F4BE45"/>
<path d="M127.42 14.1774C127.42 15.583 127.346 15.6592 125.436 15.6592C123.521 15.6592 123.443 15.583 123.443 14.1774C123.443 12.7716 123.525 12.6953 125.436 12.6953C127.342 12.6953 127.42 12.7716 127.42 14.1774ZM126.544 13.3981H124.319V14.9564H126.544V13.3981Z" fill="#F4BE45"/>
<path d="M131.742 14.7236C131.742 15.583 131.382 15.6592 129.762 15.6592C128.142 15.6592 127.787 15.587 127.787 14.7114H128.666V14.9564H130.859V14.4905H129.762C128.142 14.4905 127.823 14.4905 127.823 13.6312C127.823 12.7716 128.175 12.6953 129.767 12.6953C131.354 12.6953 131.701 12.7876 131.701 13.6432H130.826V13.3981H128.699V13.864H129.762C131.403 13.864 131.742 13.864 131.742 14.7236Z" fill="#F4BE45"/>
<path fill-rule="evenodd" clip-rule="evenodd" d="M12.151 36.4943C12.7011 36.8092 13.1469 37.2733 13.4348 37.831C13.7228 38.3886 13.8406 39.016 13.7742 39.6377C15.1791 40.1813 16.6432 40.564 18.1374 40.7782C18.4019 40.2111 18.8267 39.7305 19.3612 39.3935C19.8958 39.0566 20.5177 38.8774 21.153 38.8774C21.7882 38.8774 22.4101 39.0566 22.9447 39.3935C23.4793 39.7305 23.9041 40.2111 24.1685 40.7782C25.6632 40.5659 27.1275 40.1831 28.5318 39.6377C28.4683 39.0146 28.5891 38.3868 28.8796 37.8293C29.1701 37.2718 29.618 36.8083 30.1699 36.4943C30.72 36.1817 31.351 36.0331 31.9857 36.0669C32.6204 36.1007 33.2313 36.3152 33.7438 36.6843C34.9234 35.7529 35.9968 34.699 36.9455 33.5409C36.5756 33.0347 36.362 32.4345 36.3303 31.8122C36.2986 31.1899 36.4501 30.5719 36.7668 30.0319C37.0798 29.4874 37.5485 29.0449 38.1148 28.7591C38.6812 28.4732 39.3205 28.3566 39.9536 28.4236C40.4696 27.1461 40.8441 25.8177 41.0705 24.4614H36.3945C35.6311 27.8722 33.7038 30.9246 30.9319 33.1129C28.16 35.3013 24.7099 36.4943 21.153 36.4943C17.5961 36.4943 14.146 35.3013 11.3741 33.1129C8.60217 30.9246 6.67487 27.8722 5.91143 24.4614H1.23547C1.4689 25.8162 1.84314 27.1438 2.35234 28.4236C2.98613 28.3574 3.6259 28.4728 4.1943 28.7559C4.76269 29.0391 5.23536 29.4778 5.55514 30.0192C5.87492 30.5605 6.02812 31.1812 5.99621 31.8062C5.9643 32.4312 5.74865 33.0337 5.37534 33.5409C6.3188 34.6987 7.38731 35.7527 8.56213 36.6843C9.07756 36.3153 9.69091 36.101 10.3279 36.0672C10.9649 36.0335 11.5982 36.1818 12.151 36.4943Z" fill="#1A1A1A"/>
<path fill-rule="evenodd" clip-rule="evenodd" d="M11.198 9.46022L20.0436 4.44531V23.3061H19.2841V14.3728L13.387 11.0247L11.198 12.2674V9.46022Z" fill="#1A1A1A"/>
<path fill-rule="evenodd" clip-rule="evenodd" d="M30.4081 5.93678L21.5625 0.921875V23.3062H25.9853V12.6623L30.4081 15.1771V5.93678Z" fill="#1A1A1A"/>
<path fill-rule="evenodd" clip-rule="evenodd" d="M34.8309 17.677L25.9854 12.6621L30.4081 15.1769V23.306H34.8309V17.677Z" fill="#F4BE45"/>
<path fill-rule="evenodd" clip-rule="evenodd" d="M31.9568 20.4992L34.8309 23.3064H41.0705L34.0119 20.3091L31.9568 20.4992Z" fill="#F4BE45"/>
<path fill-rule="evenodd" clip-rule="evenodd" d="M17.8843 25.792H20.6392V28.4968H17.8843V25.792ZM21.6667 25.792H24.4217V28.4968H21.6667V25.792ZM24.4217 29.5203V32.2251H21.6667V29.5203H24.4217ZM20.6392 32.2251H17.8843V29.5203H20.6392V32.2251Z" fill="#F4BE45"/>
</g>
<defs>
<clipPath id="clip0_37_732">
<rect width="134" height="42" fill="white"/>
</clipPath>
</defs>
</svg>
