<svg width="136" height="42" viewBox="0 0 136 42" fill="none" xmlns="http://www.w3.org/2000/svg">
<g clip-path="url(#clip0_37_746)">
<path d="M54.679 26.6175H65.4624V29.3191L51.3441 29.3346V18.4668H65.4624V21.1836H54.679V22.6897H65.182V25.1117H54.679V26.6175Z" fill="white"/>
<path d="M81.9182 28.4341V29.3346H78.6146V26.7418H70.5115V29.3346H67.1766V18.4668H77.1498C81.4197 18.4668 81.9182 18.8394 81.9182 22.5966C81.9182 24.2112 81.5287 24.7546 80.6248 25.1893C81.5287 25.6551 81.9182 25.8568 81.9182 28.4341ZM78.5991 21.1836H70.5115V24.025H78.5991V21.1836Z" fill="white"/>
<path d="M101.304 18.4668V29.3346H97.9693V22.643L93.8708 29.3346H91.0815L86.9832 22.643V29.3346H83.6483V18.4668H87.9337L92.4839 25.8725L97.0186 18.4668H101.304Z" fill="white"/>
<path d="M106.525 26.6175H117.308V29.3191L103.19 29.3346V18.4668H117.308V21.1836H106.525V22.6897H117.028V25.1117H106.525V26.6175Z" fill="white"/>
<path d="M133.795 26.0123C133.795 29.3347 132.424 29.6297 126.253 29.6297C120.082 29.6297 118.726 29.3502 118.726 25.9657H122.077V26.9126H130.429V25.1118H126.253C120.082 25.1118 118.866 25.1118 118.866 21.7892C118.866 18.4669 120.207 18.1719 126.269 18.1719C132.315 18.1719 133.639 18.529 133.639 21.8359H130.304V20.8889H122.201V22.6898H126.253C132.502 22.6898 133.795 22.6898 133.795 26.0123Z" fill="white"/>
<path d="M52.2046 12.8218V15.7327H51.3113V12.8218H52.2046Z" fill="#F4BE45"/>
<path d="M56.6537 12.8218V15.7327H55.3931L53.5982 13.7324V15.7327H52.7051V12.8218H53.878L55.7646 14.9218V12.8218H56.6537Z" fill="#F4BE45"/>
<path d="M61.2145 14.2773C61.2145 15.6537 61.1393 15.7285 59.1901 15.7285L57.1575 15.7327V12.8218H59.1901C61.1352 12.8218 61.2145 12.9007 61.2145 14.2773ZM60.3214 13.5495H58.0508V15.005H60.3214V13.5495Z" fill="#F4BE45"/>
<path d="M63.5882 15.8117C61.6057 15.8117 61.6391 15.7327 61.6391 14.2773V12.8218H62.5324V15.0882H64.6402V12.8218H65.5334V14.2773C65.5334 15.7327 65.5667 15.8117 63.5882 15.8117Z" fill="#F4BE45"/>
<path d="M69.9732 14.8432C69.9732 15.733 69.6059 15.812 67.9531 15.812C66.3002 15.812 65.9371 15.7372 65.9371 14.8306H66.8345V15.0843H69.0717V14.6019H67.9531C66.3002 14.6019 65.9747 14.6019 65.9747 13.7121C65.9747 12.8221 66.3336 12.7432 67.9573 12.7432C69.5768 12.7432 69.9314 12.8388 69.9314 13.7246H69.0383V13.4708H66.8679V13.9532H67.9531C69.6268 13.9532 69.9732 13.9532 69.9732 14.8432Z" fill="#F4BE45"/>
<path d="M74.2838 13.4705H72.6811V15.7327H71.788V13.4705H70.1852V12.8218H74.2838V13.4705Z" fill="#F4BE45"/>
<path d="M78.5234 15.4914V15.7327H77.6387V15.0383H75.4683V15.7327H74.575V12.8218H77.2462C78.3898 12.8218 78.5234 12.9216 78.5234 13.9278C78.5234 14.3603 78.4192 14.506 78.177 14.6224C78.4192 14.7471 78.5234 14.8012 78.5234 15.4914ZM77.6345 13.5495H75.4683V14.3106H77.6345V13.5495Z" fill="#F4BE45"/>
<path d="M79.879 12.8218V15.7327H78.9858V12.8218H79.879Z" fill="#F4BE45"/>
<path d="M83.3346 15.2545H81.3896L81.1265 15.7327H80.129L81.7151 12.8218H83.0089L84.5952 15.7327H83.5975L83.3346 15.2545ZM82.984 14.6058L82.362 13.4663L81.7401 14.6058H82.984Z" fill="#F4BE45"/>
<path d="M88.2211 15.084V15.7327H84.8444V12.8218H85.7377V15.084L88.2211 15.084Z" fill="#F4BE45"/>
<path d="M94.7518 14.2773C94.7518 15.6537 94.6766 15.7285 92.7275 15.7285L90.6948 15.7327V12.8218H92.7275C94.6726 12.8218 94.7518 12.9007 94.7518 14.2773ZM93.8587 13.5495H91.5881V15.005H93.8587V13.5495Z" fill="#F4BE45"/>
<path d="M96.0905 15.005H98.979V15.7285L95.1974 15.7327V12.8218H98.979V13.5495H96.0905V13.9529H98.9038V14.6016H96.0905V15.005Z" fill="#F4BE45"/>
<path d="M105.576 14.8432C105.576 15.733 105.209 15.812 103.556 15.812C101.903 15.812 101.54 15.7372 101.54 14.8306H102.437V15.0843H104.675V14.6019H103.556C101.903 14.6019 101.578 14.6019 101.578 13.7121C101.578 12.8221 101.937 12.7432 103.56 12.7432C105.18 12.7432 105.534 12.8388 105.534 13.7246H104.641V13.4708H102.471V13.9532H103.556C105.23 13.9532 105.576 13.9532 105.576 14.8432Z" fill="#F4BE45"/>
<path d="M106.894 15.005H109.782V15.7285L106.001 15.7327V12.8218H109.782V13.5495H106.894V13.9529H109.707V14.6016H106.894V15.005Z" fill="#F4BE45"/>
<path d="M114.189 15.4914V15.7327H113.304V15.0383H111.134V15.7327H110.24V12.8218H112.912C114.055 12.8218 114.189 12.9216 114.189 13.9278C114.189 14.3603 114.085 14.506 113.842 14.6224C114.085 14.7471 114.189 14.8012 114.189 15.4914ZM113.3 13.5495H111.134V14.3106H113.3V13.5495Z" fill="#F4BE45"/>
<path d="M118.383 12.8218L116.901 15.7327H115.803L114.321 12.8218H115.319L116.35 14.8511L117.381 12.8218L118.383 12.8218Z" fill="#F4BE45"/>
<path d="M119.521 12.8218V15.7327H118.628V12.8218H119.521Z" fill="#F4BE45"/>
<path d="M124.02 14.7641C123.979 15.7539 123.707 15.812 122.004 15.812C120.051 15.812 119.972 15.733 119.972 14.2777C119.972 12.8221 120.055 12.7432 122.004 12.7432C123.703 12.7432 123.979 12.8013 124.02 13.7951H123.119V13.4708H120.865V15.0843H123.119V14.7641L124.02 14.7641Z" fill="#F4BE45"/>
<path d="M125.317 12.8218V15.7327H124.424V12.8218H125.317Z" fill="#F4BE45"/>
<path d="M129.825 14.2777C129.825 15.733 129.75 15.812 127.801 15.812C125.847 15.812 125.768 15.733 125.768 14.2777C125.768 12.8221 125.851 12.7432 127.801 12.7432C129.746 12.7432 129.825 12.8221 129.825 14.2777ZM128.932 13.4708H126.661V15.0843H128.932V13.4708Z" fill="#F4BE45"/>
<path d="M134.235 14.8432C134.235 15.733 133.868 15.812 132.215 15.812C130.562 15.812 130.199 15.7372 130.199 14.8306H131.097V15.0843H133.334V14.6019H132.215C130.562 14.6019 130.237 14.6019 130.237 13.7121C130.237 12.8221 130.596 12.7432 132.22 12.7432C133.839 12.7432 134.194 12.8388 134.194 13.7246H133.3V13.4708H131.13V13.9532H132.215C133.889 13.9532 134.235 13.9532 134.235 14.8432Z" fill="#F4BE45"/>
<path fill-rule="evenodd" clip-rule="evenodd" d="M12.2121 37.3841C12.7734 37.7101 13.2282 38.1907 13.522 38.768C13.8158 39.3454 13.9361 39.995 13.8683 40.6388C15.3018 41.2016 16.7957 41.5978 18.3203 41.8196C18.5901 41.2324 19.0235 40.7348 19.569 40.3859C20.1144 40.037 20.749 39.8516 21.3971 39.8516C22.0453 39.8516 22.6799 40.037 23.2253 40.3859C23.7708 40.7348 24.2042 41.2324 24.474 41.8196C25.999 41.5997 27.4931 41.2035 28.926 40.6388C28.8612 39.9936 28.9845 39.3435 29.2809 38.7663C29.5773 38.1891 30.0344 37.7092 30.5974 37.3841C31.1587 37.0604 31.8025 36.9066 32.4501 36.9415C33.0977 36.9765 33.7211 37.1986 34.2441 37.5808C35.4476 36.6164 36.5429 35.5252 37.5109 34.3261C37.1334 33.802 36.9154 33.1806 36.8831 32.5363C36.8508 31.892 37.0054 31.252 37.3285 30.693C37.6479 30.1292 38.1261 29.671 38.7039 29.375C39.2818 29.0791 39.9341 28.9584 40.5801 29.0277C41.1066 27.705 41.4887 26.3296 41.7197 24.9253H36.9487C36.1697 28.4568 34.2032 31.6172 31.3749 33.883C28.5467 36.1488 25.0264 37.3841 21.3972 37.3841C17.7679 37.3841 14.2476 36.1488 11.4194 33.883C8.59109 31.6172 6.6246 28.4568 5.84564 24.9253H1.07458C1.31275 26.328 1.69461 27.7026 2.21417 29.0277C2.86084 28.9591 3.51363 29.0786 4.09358 29.3718C4.67353 29.665 5.15581 30.1193 5.4821 30.6797C5.80838 31.2402 5.9647 31.8829 5.93214 32.53C5.89958 33.1771 5.67955 33.801 5.29864 34.3261C6.26129 35.5249 7.35152 36.6162 8.55025 37.5809C9.07615 37.1988 9.70198 36.9768 10.3519 36.9419C11.0018 36.907 11.648 37.0606 12.2121 37.3841Z" fill="white"/>
<path fill-rule="evenodd" clip-rule="evenodd" d="M11.2396 9.39358L20.2652 4.20117V23.7295H19.4902V14.4801L13.4733 11.0134L11.2396 12.3002V9.39358Z" fill="white"/>
<path fill-rule="evenodd" clip-rule="evenodd" d="M30.8405 5.74515L21.8151 0.552734V23.7294H26.3278V12.7088L30.8405 15.3125V5.74515Z" fill="white"/>
<path fill-rule="evenodd" clip-rule="evenodd" d="M35.3532 17.9014L26.3278 12.709L30.8405 15.3127V23.7296H35.3532V17.9014Z" fill="#F4BE45"/>
<path fill-rule="evenodd" clip-rule="evenodd" d="M32.4208 20.8228L35.3533 23.7294H41.7197L34.5176 20.626L32.4208 20.8228Z" fill="#F4BE45"/>
<path fill-rule="evenodd" clip-rule="evenodd" d="M18.062 26.3032H20.873V29.1038H18.062V26.3032ZM21.9214 26.3032H24.7324V29.1038H21.9214V26.3032ZM24.7324 30.1635V32.964H21.9214V30.1635L24.7324 30.1635ZM20.873 32.964H18.062V30.1635H20.873V32.964Z" fill="#F4BE45"/>
</g>
<defs>
<clipPath id="clip0_37_746">
<rect width="136" height="42" fill="white"/>
</clipPath>
</defs>
</svg>
