<svg width="174" height="42" viewBox="0 0 174 42" fill="none" xmlns="http://www.w3.org/2000/svg">
<g clip-path="url(#clip0_1577_15)">
<path d="M78.3354 20.6691C79.195 19.804 79.7323 18.611 79.7323 17.2969H62.772V22.0659H74.9632C76.2774 22.0659 77.4703 21.5314 78.3354 20.6691Z" fill="#00003C"/>
<path d="M68.8085 30.2389H73.8834C75.1397 30.2389 76.2776 29.7292 77.0986 28.9054C77.9223 28.0817 78.432 26.9438 78.432 25.6875H62.7749V38.9642H80.1402V34.2007H68.814V30.2389H68.8085Z" fill="#00003C"/>
<path d="M151.047 20.6691C151.907 19.804 152.444 18.611 152.444 17.2969H135.484V22.0659H147.675C148.989 22.0659 150.182 21.5314 151.047 20.6691Z" fill="#00003C"/>
<path d="M141.52 30.2389H146.595C147.852 30.2389 148.989 29.7292 149.81 28.9054C150.634 28.0817 151.144 26.9438 151.144 25.6875H135.487V38.9642H152.852V34.2007H141.526V30.2389H141.52Z" fill="#00003C"/>
<path d="M101.908 29.5554C102.682 28.379 103.068 26.9546 103.068 25.285C103.068 23.6154 102.682 22.2379 101.908 21.0284C101.134 19.8217 100.026 18.8987 98.58 18.2595C97.1363 17.6204 95.4227 17.3008 93.4418 17.3008H83.5703V38.964H89.6976V33.2086H93.012L96.9407 38.964H103.501L98.8225 32.1479C100.148 31.5253 101.178 30.6629 101.905 29.5554H101.908ZM95.9517 27.6351C95.3125 28.1916 94.3537 28.4699 93.0726 28.4699H89.7004V22.1249H93.0726C94.351 22.1249 95.3125 22.4087 95.9517 22.9763C96.5908 23.5438 96.9104 24.3125 96.9104 25.2823C96.9104 26.252 96.5908 27.0786 95.9517 27.6351Z" fill="#00003C"/>
<path d="M126.558 17.3008L119.116 31.63L111.515 17.3008H106.47V38.964H112.104V28.1641L117.645 38.964H120.367L125.946 27.7784L126.001 38.964H131.632L131.602 17.3008H126.558Z" fill="#00003C"/>
<path d="M173.319 29.5709C172.865 28.8187 172.273 28.2099 171.54 27.7443C170.807 27.2786 170.008 26.9095 169.14 26.6284C168.272 26.3502 167.402 26.1188 166.525 25.9314C165.649 25.7441 164.85 25.565 164.126 25.3887C163.404 25.2123 162.814 24.9864 162.362 24.7082C161.908 24.4299 161.682 24.0442 161.682 23.5483C161.682 23.2177 161.795 22.9091 162.024 22.6198C162.25 22.3305 162.621 22.0936 163.137 21.909C163.652 21.7216 164.332 21.6307 165.178 21.6307C166.126 21.6307 167.107 21.7657 168.118 22.033C169.129 22.303 170.148 22.7245 171.181 23.3031L173.038 18.7847C171.986 18.1455 170.774 17.6662 169.402 17.3466C168.03 17.027 166.633 16.8672 165.208 16.8672C163.084 16.8672 161.31 17.1868 159.886 17.826C158.461 18.4651 157.401 19.3109 156.698 20.3634C155.995 21.4158 155.646 22.5812 155.646 23.8596C155.646 25.0167 155.866 25.9755 156.312 26.7386C156.756 27.5018 157.337 28.1217 158.062 28.5956C158.784 29.0694 159.588 29.4524 160.475 29.7417C161.362 30.031 162.233 30.2624 163.09 30.4387C163.947 30.615 164.74 30.7996 165.473 30.9953C166.206 31.1909 166.798 31.4278 167.253 31.7061C167.707 31.9843 167.933 32.3618 167.933 32.8356C167.933 33.2076 167.815 33.5272 167.578 33.7944C167.341 34.0644 166.969 34.2683 166.465 34.4143C165.958 34.5603 165.275 34.632 164.407 34.632C163.148 34.632 161.883 34.4308 160.616 34.0286C159.346 33.6264 158.227 33.1167 157.257 32.4968L155.246 37.0454C156.257 37.7259 157.582 38.288 159.224 38.7315C160.864 39.1751 162.583 39.3955 164.376 39.3955C166.523 39.3955 168.308 39.0759 169.73 38.4367C171.151 37.7975 172.22 36.9462 172.934 35.8828C173.647 34.8193 174 33.6594 174 32.4003C174 31.2652 173.771 30.323 173.319 29.5681V29.5709Z" fill="#00003C"/>
<path d="M35.5048 3H0L0.33061 5.85427C0.438058 6.78548 3.23171 28.7518 25.366 38.7362L25.8675 38.9621H59.7274V27.2199C59.7274 20.8722 57.2368 14.778 52.7901 10.2514C48.236 5.61457 42.0067 3 35.5048 3ZM54.6057 33.8431H26.9778C23.8535 32.3857 21.1838 30.6528 18.8888 28.7738H36.3037C39.1304 28.7738 41.4254 26.4816 41.4254 23.6521H13.7589C12.3483 21.9357 11.1664 20.1945 10.1855 18.4973H31.16C33.9867 18.4973 36.2817 16.2051 36.2817 13.3756H7.68944C6.86291 11.3259 6.32292 9.51026 5.97853 8.11619H35.5075C40.6347 8.11619 45.5443 10.177 49.1369 13.8357C52.6441 17.4063 54.6085 22.2139 54.6085 27.2172V33.8376L54.6057 33.8431Z" fill="url(#paint0_linear_1577_15)"/>
<path d="M63.233 7.90909V13H62.6165V7.90909H63.233ZM68.5059 7.90909V13H67.9094L65.1352 9.00284H65.0855V13H64.469V7.90909H65.0656L67.8497 11.9162H67.8994V7.90909H68.5059ZM71.3105 13H69.7395V7.90909H71.3801C71.874 7.90909 72.2966 8.01101 72.6479 8.21484C72.9992 8.41702 73.2685 8.70786 73.4558 9.08736C73.6431 9.4652 73.7367 9.91761 73.7367 10.4446C73.7367 10.9749 73.6422 11.4315 73.4533 11.8143C73.2644 12.1954 72.9893 12.4888 72.628 12.6942C72.2667 12.8981 71.8276 13 71.3105 13ZM70.356 12.4531H71.2708C71.6917 12.4531 72.0405 12.3719 72.3173 12.2095C72.594 12.0471 72.8004 11.8159 72.9363 11.516C73.0721 11.216 73.1401 10.8589 73.1401 10.4446C73.1401 10.0336 73.073 9.67981 72.9387 9.38317C72.8045 9.08487 72.604 8.85618 72.3372 8.69709C72.0704 8.53634 71.7381 8.45597 71.3404 8.45597H70.356V12.4531ZM78.1117 7.90909H78.7282V11.2798C78.7282 11.6278 78.6461 11.9386 78.4821 12.212C78.3197 12.4838 78.0901 12.6984 77.7935 12.8558C77.4969 13.0116 77.1489 13.0895 76.7495 13.0895C76.3501 13.0895 76.0021 13.0116 75.7054 12.8558C75.4088 12.6984 75.1784 12.4838 75.0144 12.212C74.852 11.9386 74.7708 11.6278 74.7708 11.2798V7.90909H75.3873V11.2301C75.3873 11.4787 75.4419 11.6999 75.5513 11.8938C75.6607 12.0861 75.8165 12.2377 76.0186 12.3487C76.2225 12.4581 76.4661 12.5128 76.7495 12.5128C77.0328 12.5128 77.2765 12.4581 77.4803 12.3487C77.6841 12.2377 77.8399 12.0861 77.9476 11.8938C78.057 11.6999 78.1117 11.4787 78.1117 11.2301V7.90909ZM82.7433 9.18182C82.7135 8.92992 82.5925 8.73438 82.3804 8.59517C82.1683 8.45597 81.9081 8.38636 81.5999 8.38636C81.3745 8.38636 81.1773 8.42282 81.0083 8.49574C80.8409 8.56866 80.71 8.66892 80.6155 8.79652C80.5227 8.92412 80.4763 9.06913 80.4763 9.23153C80.4763 9.36742 80.5086 9.48426 80.5732 9.58203C80.6395 9.67815 80.724 9.75852 80.8268 9.82315C80.9295 9.88613 81.0373 9.93833 81.1499 9.97976C81.2626 10.0195 81.3662 10.0518 81.4607 10.0767L81.9777 10.2159C82.1103 10.2507 82.2578 10.2988 82.4202 10.3601C82.5843 10.4214 82.7409 10.5051 82.89 10.6112C83.0408 10.7156 83.1651 10.8498 83.2629 11.0138C83.3606 11.1779 83.4095 11.3793 83.4095 11.6179C83.4095 11.893 83.3374 12.1416 83.1933 12.3636C83.0508 12.5857 82.8419 12.7622 82.5669 12.8931C82.2934 13.024 81.9611 13.0895 81.57 13.0895C81.2055 13.0895 80.8898 13.0307 80.623 12.913C80.3578 12.7953 80.149 12.6313 79.9965 12.4208C79.8457 12.2103 79.7604 11.9659 79.7405 11.6875H80.3769C80.3934 11.8797 80.4581 12.0388 80.5708 12.1648C80.6851 12.2891 80.8293 12.3819 81.0033 12.4432C81.1789 12.5028 81.3679 12.5327 81.57 12.5327C81.8054 12.5327 82.0167 12.4946 82.2039 12.4183C82.3912 12.3404 82.5395 12.2327 82.6489 12.0952C82.7583 11.956 82.8129 11.7936 82.8129 11.608C82.8129 11.4389 82.7657 11.3014 82.6713 11.1953C82.5768 11.0893 82.4525 11.0031 82.2984 10.9368C82.1443 10.8705 81.9777 10.8125 81.7987 10.7628L81.1723 10.5838C80.7746 10.4695 80.4597 10.3062 80.2277 10.0941C79.9957 9.88198 79.8797 9.6044 79.8797 9.26136C79.8797 8.97633 79.9568 8.72775 80.1109 8.51562C80.2667 8.30185 80.4755 8.13613 80.7373 8.01847C81.0008 7.89915 81.295 7.83949 81.6198 7.83949C81.9479 7.83949 82.2396 7.89832 82.4948 8.01598C82.75 8.13198 82.9521 8.29107 83.1013 8.49325C83.2521 8.69543 83.3316 8.92495 83.3399 9.18182H82.7433ZM84.1447 8.45597V7.90909H87.9629V8.45597H86.362V13H85.7456V8.45597H84.1447ZM88.9143 13V7.90909H90.6345C91.0322 7.90909 91.3587 7.97704 91.6139 8.11293C91.8691 8.24716 92.058 8.43194 92.1807 8.66726C92.3033 8.90258 92.3646 9.17022 92.3646 9.47017C92.3646 9.77012 92.3033 10.0361 92.1807 10.2681C92.058 10.5001 91.8699 10.6824 91.6164 10.815C91.3628 10.9459 91.0389 11.0114 90.6444 11.0114H89.2524V10.4545H90.6246C90.8963 10.4545 91.1151 10.4148 91.2808 10.3352C91.4482 10.2557 91.5692 10.143 91.6437 9.99716C91.72 9.84967 91.7581 9.67401 91.7581 9.47017C91.7581 9.26634 91.72 9.08819 91.6437 8.93572C91.5675 8.78326 91.4457 8.6656 91.2783 8.58274C91.1109 8.49822 90.8897 8.45597 90.6146 8.45597H89.5308V13H88.9143ZM91.3106 10.7131L92.5635 13H91.8476L90.6146 10.7131H91.3106ZM94.0083 7.90909V13H93.3919V7.90909H94.0083ZM95.4532 13H94.8069L96.6762 7.90909H97.3126L99.1819 13H98.5356L97.0143 8.71449H96.9745L95.4532 13ZM95.6919 11.0114H98.297V11.5582H95.6919V11.0114ZM99.9749 13V7.90909H100.591V12.4531H102.958V13H99.9749ZM107.452 13H105.881V7.90909H107.522C108.016 7.90909 108.438 8.01101 108.79 8.21484C109.141 8.41702 109.41 8.70786 109.597 9.08736C109.785 9.4652 109.878 9.91761 109.878 10.4446C109.878 10.9749 109.784 11.4315 109.595 11.8143C109.406 12.1954 109.131 12.4888 108.77 12.6942C108.408 12.8981 107.969 13 107.452 13ZM106.498 12.4531H107.412C107.833 12.4531 108.182 12.3719 108.459 12.2095C108.736 12.0471 108.942 11.8159 109.078 11.516C109.214 11.216 109.282 10.8589 109.282 10.4446C109.282 10.0336 109.215 9.67981 109.08 9.38317C108.946 9.08487 108.746 8.85618 108.479 8.69709C108.212 8.53634 107.88 8.45597 107.482 8.45597H106.498V12.4531ZM110.912 13V7.90909H113.985V8.45597H111.529V10.1761H113.826V10.723H111.529V12.4531H114.025V13H110.912ZM119.849 9.18182C119.819 8.92992 119.698 8.73438 119.486 8.59517C119.274 8.45597 119.014 8.38636 118.705 8.38636C118.48 8.38636 118.283 8.42282 118.114 8.49574C117.946 8.56866 117.815 8.66892 117.721 8.79652C117.628 8.92412 117.582 9.06913 117.582 9.23153C117.582 9.36742 117.614 9.48426 117.679 9.58203C117.745 9.67815 117.83 9.75852 117.932 9.82315C118.035 9.88613 118.143 9.93833 118.255 9.97976C118.368 10.0195 118.472 10.0518 118.566 10.0767L119.083 10.2159C119.216 10.2507 119.363 10.2988 119.526 10.3601C119.69 10.4214 119.846 10.5051 119.995 10.6112C120.146 10.7156 120.271 10.8498 120.368 11.0138C120.466 11.1779 120.515 11.3793 120.515 11.6179C120.515 11.893 120.443 12.1416 120.299 12.3636C120.156 12.5857 119.947 12.7622 119.672 12.8931C119.399 13.024 119.067 13.0895 118.676 13.0895C118.311 13.0895 117.995 13.0307 117.728 12.913C117.463 12.7953 117.254 12.6313 117.102 12.4208C116.951 12.2103 116.866 11.9659 116.846 11.6875H117.482C117.499 11.8797 117.564 12.0388 117.676 12.1648C117.791 12.2891 117.935 12.3819 118.109 12.4432C118.284 12.5028 118.473 12.5327 118.676 12.5327C118.911 12.5327 119.122 12.4946 119.309 12.4183C119.497 12.3404 119.645 12.2327 119.754 12.0952C119.864 11.956 119.918 11.7936 119.918 11.608C119.918 11.4389 119.871 11.3014 119.777 11.1953C119.682 11.0893 119.558 11.0031 119.404 10.9368C119.25 10.8705 119.083 10.8125 118.904 10.7628L118.278 10.5838C117.88 10.4695 117.565 10.3062 117.333 10.0941C117.101 9.88198 116.985 9.6044 116.985 9.26136C116.985 8.97633 117.062 8.72775 117.216 8.51562C117.372 8.30185 117.581 8.13613 117.843 8.01847C118.106 7.89915 118.4 7.83949 118.725 7.83949C119.053 7.83949 119.345 7.89832 119.6 8.01598C119.855 8.13198 120.058 8.29107 120.207 8.49325C120.358 8.69543 120.437 8.92495 120.445 9.18182H119.849ZM121.529 13V7.90909H124.601V8.45597H122.145V10.1761H124.442V10.723H122.145V12.4531H124.641V13H121.529ZM125.712 13V7.90909H127.432C127.83 7.90909 128.157 7.97704 128.412 8.11293C128.667 8.24716 128.856 8.43194 128.979 8.66726C129.101 8.90258 129.162 9.17022 129.162 9.47017C129.162 9.77012 129.101 10.0361 128.979 10.2681C128.856 10.5001 128.668 10.6824 128.414 10.815C128.161 10.9459 127.837 11.0114 127.442 11.0114H126.05V10.4545H127.422C127.694 10.4545 127.913 10.4148 128.079 10.3352C128.246 10.2557 128.367 10.143 128.442 9.99716C128.518 9.84967 128.556 9.67401 128.556 9.47017C128.556 9.26634 128.518 9.08819 128.442 8.93572C128.365 8.78326 128.244 8.6656 128.076 8.58274C127.909 8.49822 127.688 8.45597 127.412 8.45597H126.329V13H125.712ZM128.108 10.7131L129.361 13H128.645L127.412 10.7131H128.108ZM130.282 7.90909L131.794 12.1946H131.853L133.365 7.90909H134.011L132.142 13H131.505L129.636 7.90909H130.282ZM135.42 7.90909V13H134.804V7.90909H135.42ZM140.753 9.5H140.137C140.1 9.32268 140.036 9.1669 139.945 9.03267C139.856 8.89844 139.746 8.78575 139.617 8.6946C139.489 8.6018 139.348 8.5322 139.192 8.4858C139.036 8.43939 138.874 8.41619 138.705 8.41619C138.397 8.41619 138.117 8.49408 137.867 8.64986C137.619 8.80563 137.42 9.03516 137.273 9.33842C137.127 9.64169 137.054 10.0137 137.054 10.4545C137.054 10.8954 137.127 11.2674 137.273 11.5707C137.42 11.8739 137.619 12.1035 137.867 12.2592C138.117 12.415 138.397 12.4929 138.705 12.4929C138.874 12.4929 139.036 12.4697 139.192 12.4233C139.348 12.3769 139.489 12.3081 139.617 12.217C139.746 12.1242 139.856 12.0107 139.945 11.8764C140.036 11.7405 140.1 11.5848 140.137 11.4091H140.753C140.707 11.6693 140.622 11.9021 140.5 12.1076C140.377 12.3131 140.224 12.4879 140.042 12.6321C139.86 12.7746 139.655 12.8832 139.428 12.9577C139.203 13.0323 138.962 13.0696 138.705 13.0696C138.271 13.0696 137.884 12.9635 137.546 12.7514C137.208 12.5393 136.942 12.2377 136.748 11.8466C136.555 11.4555 136.458 10.9915 136.458 10.4545C136.458 9.91761 136.555 9.4536 136.748 9.0625C136.942 8.6714 137.208 8.36979 137.546 8.15767C137.884 7.94555 138.271 7.83949 138.705 7.83949C138.962 7.83949 139.203 7.87678 139.428 7.95135C139.655 8.02592 139.86 8.1353 140.042 8.27947C140.224 8.42199 140.377 8.596 140.5 8.80149C140.622 9.00533 140.707 9.23816 140.753 9.5ZM142.366 7.90909V13H141.749V7.90909H142.366ZM147.897 10.4545C147.897 10.9915 147.8 11.4555 147.606 11.8466C147.413 12.2377 147.147 12.5393 146.809 12.7514C146.47 12.9635 146.084 13.0696 145.65 13.0696C145.216 13.0696 144.83 12.9635 144.492 12.7514C144.154 12.5393 143.888 12.2377 143.694 11.8466C143.5 11.4555 143.403 10.9915 143.403 10.4545C143.403 9.91761 143.5 9.4536 143.694 9.0625C143.888 8.6714 144.154 8.36979 144.492 8.15767C144.83 7.94555 145.216 7.83949 145.65 7.83949C146.084 7.83949 146.47 7.94555 146.809 8.15767C147.147 8.36979 147.413 8.6714 147.606 9.0625C147.8 9.4536 147.897 9.91761 147.897 10.4545ZM147.301 10.4545C147.301 10.0137 147.227 9.64169 147.079 9.33842C146.934 9.03516 146.736 8.80563 146.485 8.64986C146.237 8.49408 145.958 8.41619 145.65 8.41619C145.342 8.41619 145.063 8.49408 144.812 8.64986C144.564 8.80563 144.366 9.03516 144.218 9.33842C144.072 9.64169 144 10.0137 144 10.4545C144 10.8954 144.072 11.2674 144.218 11.5707C144.366 11.8739 144.564 12.1035 144.812 12.2592C145.063 12.415 145.342 12.4929 145.65 12.4929C145.958 12.4929 146.237 12.415 146.485 12.2592C146.736 12.1035 146.934 11.8739 147.079 11.5707C147.227 11.2674 147.301 10.8954 147.301 10.4545ZM151.718 9.18182C151.688 8.92992 151.567 8.73438 151.355 8.59517C151.143 8.45597 150.883 8.38636 150.574 8.38636C150.349 8.38636 150.152 8.42282 149.983 8.49574C149.815 8.56866 149.685 8.66892 149.59 8.79652C149.497 8.92412 149.451 9.06913 149.451 9.23153C149.451 9.36742 149.483 9.48426 149.548 9.58203C149.614 9.67815 149.699 9.75852 149.801 9.82315C149.904 9.88613 150.012 9.93833 150.125 9.97976C150.237 10.0195 150.341 10.0518 150.435 10.0767L150.952 10.2159C151.085 10.2507 151.232 10.2988 151.395 10.3601C151.559 10.4214 151.715 10.5051 151.865 10.6112C152.015 10.7156 152.14 10.8498 152.237 11.0138C152.335 11.1779 152.384 11.3793 152.384 11.6179C152.384 11.893 152.312 12.1416 152.168 12.3636C152.025 12.5857 151.817 12.7622 151.541 12.8931C151.268 13.024 150.936 13.0895 150.545 13.0895C150.18 13.0895 149.864 13.0307 149.598 12.913C149.332 12.7953 149.124 12.6313 148.971 12.4208C148.82 12.2103 148.735 11.9659 148.715 11.6875H149.351C149.368 11.8797 149.433 12.0388 149.545 12.1648C149.66 12.2891 149.804 12.3819 149.978 12.4432C150.154 12.5028 150.342 12.5327 150.545 12.5327C150.78 12.5327 150.991 12.4946 151.179 12.4183C151.366 12.3404 151.514 12.2327 151.623 12.0952C151.733 11.956 151.788 11.7936 151.788 11.608C151.788 11.4389 151.74 11.3014 151.646 11.1953C151.551 11.0893 151.427 11.0031 151.273 10.9368C151.119 10.8705 150.952 10.8125 150.773 10.7628L150.147 10.5838C149.749 10.4695 149.434 10.3062 149.202 10.0941C148.97 9.88198 148.854 9.6044 148.854 9.26136C148.854 8.97633 148.931 8.72775 149.085 8.51562C149.241 8.30185 149.45 8.13613 149.712 8.01847C149.975 7.89915 150.27 7.83949 150.594 7.83949C150.922 7.83949 151.214 7.89832 151.469 8.01598C151.725 8.13198 151.927 8.29107 152.076 8.49325C152.227 8.69543 152.306 8.92495 152.315 9.18182H151.718Z" fill="#00003C"/>
</g>
<defs>
<linearGradient id="paint0_linear_1577_15" x1="3.93977" y1="-2.47159" x2="59.6172" y2="41.3838" gradientUnits="userSpaceOnUse">
<stop stop-color="#F4BE45"/>
<stop offset="1" stop-color="#B16400"/>
</linearGradient>
<clipPath id="clip0_1577_15">
<rect width="174" height="36.3946" fill="white" transform="translate(0 3)"/>
</clipPath>
</defs>
</svg>
